<svg width="77" height="55" viewBox="0 0 77 55" fill="none" xmlns="http://www.w3.org/2000/svg">
<path d="M3.1724 30.6733H72.9804C74.732 30.6733 76.1535 29.2518 76.1535 27.5002C76.1535 25.7487 74.732 24.3271 72.9804 24.3271H3.1724C1.42085 24.3271 -0.000688553 25.7487 -0.000688553 27.5002C-0.000688553 29.2518 1.42085 30.6733 3.1724 30.6733Z" fill="white"/>
<path d="M3.17318 6.34618H72.9812C74.7328 6.34618 76.1543 4.92465 76.1543 3.17309C76.1543 1.42154 74.7328 0 72.9812 0H3.17318C1.42162 0 8.58307e-05 1.42154 8.58307e-05 3.17309C8.58307e-05 4.92465 1.42162 6.34618 3.17318 6.34618Z" fill="white"/>
<path d="M3.1724 55H72.9804C74.732 55 76.1535 53.5785 76.1535 51.8269C76.1535 50.0753 74.732 48.6538 72.9804 48.6538H3.1724C1.42085 48.6538 -0.000688553 50.0753 -0.000688553 51.8269C-0.000688553 53.5785 1.42085 55 3.1724 55Z" fill="white"/>
</svg>
